<svg width="329" height="192" viewBox="0 0 329 192" fill="none" xmlns="http://www.w3.org/2000/svg">
<rect y="3" width="329" height="187" rx="93.5" fill="#262626"/>
<path d="M175.5 25L187.591 68.8585L233.039 66.8045L195.063 91.8565L211.061 134.446L175.5 106.07L139.939 134.446L155.937 91.8565L117.961 66.8045L163.409 68.8585L175.5 25Z" fill="#C9C9C9"/>
<g filter="url(#filter0_d_1_285)">
<path d="M164.072 94.536C169.533 95.816 173.757 98.4613 176.744 102.472C179.816 106.397 181.352 110.963 181.352 116.168C181.352 124.104 178.707 130.248 173.416 134.6C168.211 138.867 160.701 141 150.888 141H103.4V50.376H149.608C158.824 50.376 166.077 52.3813 171.368 56.392C176.659 60.4027 179.304 66.248 179.304 73.928C179.304 79.2187 177.896 83.6987 175.08 87.368C172.349 90.952 168.68 93.3413 164.072 94.536ZM131.816 85.704H142.824C145.384 85.704 147.261 85.192 148.456 84.168C149.736 83.144 150.376 81.5653 150.376 79.432C150.376 77.2133 149.736 75.592 148.456 74.568C147.261 73.4587 145.384 72.904 142.824 72.904H131.816V85.704ZM144.744 118.216C147.304 118.216 149.181 117.747 150.376 116.808C151.656 115.784 152.296 114.163 152.296 111.944C152.296 107.592 149.779 105.416 144.744 105.416H131.816V118.216H144.744Z" fill="#DDDDDD"/>
</g>
<defs>
<filter id="filter0_d_1_285" x="99.4" y="50.376" width="85.952" height="98.624" filterUnits="userSpaceOnUse" color-interpolation-filters="sRGB">
<feFlood flood-opacity="0" result="BackgroundImageFix"/>
<feColorMatrix in="SourceAlpha" type="matrix" values="0 0 0 0 0 0 0 0 0 0 0 0 0 0 0 0 0 0 127 0" result="hardAlpha"/>
<feOffset dy="4"/>
<feGaussianBlur stdDeviation="2"/>
<feComposite in2="hardAlpha" operator="out"/>
<feColorMatrix type="matrix" values="0 0 0 0 0 0 0 0 0 0 0 0 0 0 0 0 0 0 0.25 0"/>
<feBlend mode="normal" in2="BackgroundImageFix" result="effect1_dropShadow_1_285"/>
<feBlend mode="normal" in="SourceGraphic" in2="effect1_dropShadow_1_285" result="shape"/>
</filter>
</defs>
</svg>
